<svg xmlns="http://www.w3.org/2000/svg" xmlns:xlink="http://www.w3.org/1999/xlink" viewBox="0 0 200 200" id="svg2" width="200" height="200"><style id="style3">.st3{fill:#fff}.st4{fill:#292e86}</style><g id="g12"><path d="M43.7 1.2c24 0 62.6 15.2 88.3 29.4 28.2 15.5 68 47.4 68 69.3 0 23.3-40.7 54.2-68.1 69.3-24.8 13.7-62.6 29.7-87.4 29.7-6.6 0-11.9-1.1-16-3.3C8.9 184.7 0 138.4 0 99.9c0-19.2 2.3-38.3 6.8-57C12.1 22.6 19.6 9.2 28.5 4.3c3.8-2 8.8-3.1 15.2-3.1" id="path22" fill="#b0b3b5"/></g><g id="g9"><defs id="defs11"><path d="M32.1 10.3c-16.2 9-25.2 53.3-25.4 88.5v2.2c.2 35.4 8.7 79.2 25.4 88.5 15.4 8.5 57.2-4 96.6-25.7 33.8-18.7 64.6-46.4 64.6-63.9 0-16.7-31.3-45.5-64.6-63.9C98.2 19.2 64.4 7.9 44.5 7.9c-5.2 0-9.4.7-12.4 2.4" id="SVGID_1_"/></defs><clipPath id="SVGID_2_"><use id="use15" xlink:href="#SVGID_1_" overflow="visible"/></clipPath><g clip-path="url(#SVGID_2_)" id="g17"><g id="g26"><radialGradient gradientUnits="userSpaceOnUse" gradientTransform="matrix(.19 -.09 -.06 -.13 -463.91 -906.14)" r="1090.852" cy="-7574.949" cx="328.52" id="rect7562_1_"><stop id="stop21" offset="0" stop-color="#faa000"/><stop id="stop23" offset="1" stop-color="#e64600"/></radialGradient><path id="rect7562" fill="url(#rect7562_1_)" d="M6.2 7.2h187.6v185.3H6.2z"/></g></g></g><g id="g240"><g id="g242"><g id="g248"><path d="M152.9 128.5c-.1 0-.2-.1-.2-.2v-16.5c0-3.7-1.2-5.3-4.2-5.3-1.3.1-2.5.4-3.6 1.1-1.2.7-2.2 1.3-2.6 1.5-.1.1-.2.2-.2.4v18.8c0 .1-.1.2-.2.2h-7.4c-.1 0-.2-.1-.2-.2v-26.5c0-.4.4-.8.8-.8h6.8c.1 0 .2.1.2.2v2.1c0 .1.1.2.2.2h.1l.2-.2c.9-.7 1.9-1.2 3-1.7 1.7-.7 3.6-1.1 5.4-1.2 6 0 9.3 3.5 9.3 10v17.9c0 .1-.1.2-.2.2h-7.2" class="st3" id="path250"/></g><g id="g252"><path d="M166.5 128.5c-.1 0-.2-.1-.2-.2V87.5c0-.1 0-.2.2-.2 2.2 1 4.1 2.4 5.9 4.1 1 1.1 1.5 2.6 1.5 4.1v32.8c0 .1-.1.2-.2.2h-7.2" class="st3" id="path254"/></g><g id="g256"><path d="M76.7 114.7c0-5.3-2.6-7.6-6.2-7.6s-6.3 2.3-6.3 7.6c0 4.8 2.6 7.6 6.2 7.6 3.6-.1 6.2-2.7 6.3-7.6m8.1 0c0 9.7-6.4 14.4-14.4 14.4S56 124.4 56 114.7c0-10 6.4-14.4 14.4-14.4s14.4 4.4 14.4 14.4" class="st4" id="path258"/></g><g id="g260"><path d="M122.3 93.3c0-.2-.1-.3-.3-.3-2.2 1-4.2 2.4-6 4.1-1 1.2-1.6 2.7-1.6 4.2V119c0 7.7 4.4 10.1 9.3 10.1 1.9.1 3.9-.2 5.7-1 .3-.2.5-.4.5-.8v-5c0-.1-.1-.3-.3-.3-1.1.3-2.1.6-3.2.7-2.5 0-4-1.2-4-5.1v-10.2c0-.1.1-.3.3-.3h6.6c.1 0 .3-.1.3-.3v-5.3c0-.5-.4-.9-.9-.9h-6.1c-.1 0-.3-.1-.3-.3v-7" class="st4" id="path262"/></g><g id="g264"><path d="M45.3 114.6c0-3.4-2.2-6.6-7.9-6.6h-3.1c-.1 0-.3.1-.3.3V121c0 .1.1.3.3.3h3.2c6.9 0 7.8-4.8 7.8-6.7m-19.3-13c0-.5.4-.9.9-.9h10.5c10.3 0 15.6 6.2 15.6 14.2s-6 13.6-15.8 13.6h-3c-.1 0-.3.1-.3.3v13c0 .2-.1.3-.3.3-2.2-1-4.2-2.4-6-4.1-1-1.1-1.6-2.6-1.6-4.1v-32.3" class="st4" id="path266"/></g><g id="g268"><path d="M107 113.4c-1.7-1-3.6-1.6-5.5-1.9l-1.9-.4c-2.3-.5-4.2-.9-4.2-2.5 0-1.3 1.3-2.2 3.2-2.2 3.3.1 6.6.7 9.7 1.9.2.1.4 0 .4-.2v-5.5c0-.4-.3-.8-.6-.9-2.8-.9-5.6-1.4-8.5-1.5-3.1-.2-6.2.7-8.8 2.4-2.1 1.5-3.3 3.9-3.3 6.5 0 6.1 5 7.3 9.8 8.4l.9.2c2.2.5 4.4 1 4.4 2.8 0 .5-.2 1-.6 1.3-.9.7-2.1 1-3.3.9-3.6-.2-7.1-.9-10.5-1.9H88c-.2 0-.3.1-.3.3v5.4c0 .4.2.7.6.9 3.1 1 6.4 1.6 9.7 1.7 8.2 0 12.4-3.2 12.4-9.1.1-2.7-1.2-5.2-3.4-6.6" class="st4" id="path270"/></g><g id="g272"><path d="M70.4 65.1c-.2 0-.3-.1-.5-.2-1.1-.9-2.1-1.9-3-3-.2-.2-.2-.5 0-.7.9-1.2 2-2.3 3.2-3.2.1-.1.2-.1.3-.1.1 0 .2 0 .3.1 1.2.9 2.3 2 3.2 3.2.2.2.2.5 0 .7-.9 1.1-1.9 2.1-3 3-.1.1-.3.1-.5.2zM57.9 85.3c-.3 0-.6-.1-.8-.5l-.5-1.3c-.9-2.6-2.5-7-2.8-8.2-.5-1.9-.6-3.9 2-4.9.9-.3 1.7-.6 2.6-.9 1-.3 2.1-.6 3-.8h.5c.6 0 1.2.4 1.5 1 1 2.1 1.7 4.3 2.3 6.5.1.1.1.3 0 .5-.1.1-.2.2-.4.1h-2.6c-.3 0-.5-.1-.6-.4-.3-1.2-.8-2.4-1.3-3.5-.1-.2-.3-.3-.5-.3H60l-1.3.4c-.5.2-.7.8-.6 1.3 0 .1 2.6 7.5 3.5 10 .1.2.1.4 0 .6-.1.1-.3.1-.5.1l-3.2.3zm10.9 0c-.3 0-.6-.3-.6-.6 0 0-.2-14-.2-15.9 0-.2.1-.5.2-.6.1-.1.3-.2.4-.2h3.7c.2 0 .3.1.4.2.2.2.2.4.2.6 0 1.9-.2 15.8-.2 15.9.1.3-.2.6-.5.7H72l-3.2-.1zm11 0c-.2 0-.4 0-.5-.2-.1-.2-.1-.4 0-.6.8-2.5 3.4-9.9 3.5-10 .1-.5-.1-1-.6-1.2l-1.3-.4h-.3c-.2 0-.4.1-.5.3-.5 1.1-1 2.3-1.3 3.5-.1.3-.3.4-.6.4h-2.6c-.1 0-.3 0-.4-.1-.1-.1-.1-.3 0-.5.6-2.2 1.4-4.4 2.4-6.5.2-.6.8-1 1.5-1h.5c.9.2 1.9.4 3 .8.8.2 1.7.5 2.6.9 2.6 1 2.6 2.9 2 4.9-.3 1.2-1.9 5.6-2.9 8.2l-.5 1.3c-.1.3-.4.5-.8.5l-3.2-.3zm-21.5 8.4c-.7 0-.9-.3-.9-1.1v-3c0-.7.6-1.2 1.2-1.2h23.7c.7 0 1.2.6 1.2 1.2v3c0 .8-.3 1.1-.9 1.1H58.3" class="st3" id="path274"/></g></g></g></svg>
